<svg width="20" height="20" viewBox="0 0 24 24" fill="none" xmlns="http://www.w3.org/2000/svg">
<path d="M19.005 18.9996C19.002 18.9996 19 19.0016 19 19.0016L19.005 18.9996ZM5 19.0056C5 19.0016 4.998 18.9996 4.995 18.9996H5V19.0056ZM19 18.9996V12.9996H21V19.0016C21.0003 19.2638 20.9489 19.5235 20.8487 19.7658C20.7486 20.0081 20.6017 20.2284 20.4164 20.4139C20.2312 20.5995 20.0112 20.7467 19.769 20.8472C19.5268 20.9477 19.2672 20.9995 19.005 20.9996H4.995C4.46615 20.9993 3.95902 20.7892 3.58497 20.4153C3.21092 20.0415 3.00053 19.5344 3 19.0056V4.99359C3 3.89259 3.896 2.99959 4.997 2.99959H11V4.99959H5V18.9996H19ZM5 19.0056C5 19.0016 4.998 18.9996 4.995 18.9996H5V19.0056ZM11 4.99959H5V18.9996H19V12.9996H21V19.0016C21.0003 19.2638 20.9489 19.5235 20.8487 19.7658C20.7486 20.0081 20.6017 20.2284 20.4164 20.4139C20.2312 20.5995 20.0112 20.7467 19.769 20.8472C19.5268 20.9477 19.2672 20.9995 19.005 20.9996H4.995C4.46615 20.9993 3.95902 20.7892 3.58497 20.4153C3.21092 20.0415 3.00053 19.5344 3 19.0056V4.99359C3 3.89259 3.896 2.99959 4.997 2.99959H11V4.99959ZM19 4.99959V7.99959C19 8.26481 19.1054 8.51916 19.2929 8.7067C19.4804 8.89424 19.7348 8.99959 20 8.99959C20.2652 8.99959 20.5196 8.89424 20.7071 8.7067C20.8946 8.51916 21 8.26481 21 7.99959V3.99959C21 3.73438 20.8946 3.48002 20.7071 3.29249C20.5196 3.10495 20.2652 2.99959 20 2.99959H16C15.7348 2.99959 15.4804 3.10495 15.2929 3.29249C15.1054 3.48002 15 3.73438 15 3.99959C15 4.26481 15.1054 4.51916 15.2929 4.7067C15.4804 4.89424 15.7348 4.99959 16 4.99959H19Z" fill="#44546F"/>
<path d="M12.707 12.7066L20.707 4.70659C20.8025 4.61435 20.8787 4.504 20.9311 4.382C20.9835 4.25999 21.0111 4.12877 21.0123 3.99599C21.0134 3.86321 20.9881 3.73154 20.9378 3.60864C20.8875 3.48574 20.8133 3.37409 20.7194 3.2802C20.6255 3.18631 20.5138 3.11205 20.391 3.06177C20.2681 3.01149 20.1364 2.98619 20.0036 2.98734C19.8708 2.9885 19.7396 3.01608 19.6176 3.06849C19.4956 3.1209 19.3852 3.19708 19.293 3.29259L11.293 11.2926C11.1108 11.4812 11.01 11.7338 11.0123 11.996C11.0146 12.2582 11.1198 12.509 11.3052 12.6944C11.4906 12.8798 11.7414 12.985 12.0036 12.9873C12.2658 12.9895 12.5184 12.8888 12.707 12.7066Z" fill="#44546F"/>
</svg>
